<svg xmlns="http://www.w3.org/2000/svg" viewBox="16.59263801574707 14.111539840698242 936.908203125 936.8984985351562">
    <g fill="#D65A19">
      <path d="M364.46 31.07c1.05-.24 2.46-.55 3.52-.78-1.49.32-2.97.65-4.46.99.28-.06.65-.15.94-.21">
      </path>
      <path d="M364.27 31.14c3.22-.61 6.48-1.01 9.67-1.73-.09 0-3.33.41-10.43 1.87.23-.04.53-.1.76-.14M364.03 31.22c2.29-.29 4.6-.36 6.87-.8-.32-.03-2.68.13-7.39.87.16-.03.37-.05.52-.07">
      </path>
      <path d="M363.75 31.3c3.49.25 3.49.25 3.61.16-.12-.08-1.07-.29-3.85-.18.08.01.17.01.24.02M363.45 31.38c-.49.81-.3 1.26-.01 1.18.26-.07.52-.58.07-1.28-.01.03-.04.07-.06.1">
      </path>
      <path d="M363.15 31.46c-2.38 1.15-3.53 1.91-3.69 2.11.09.01.3-.09.97-.46 1.04-.59 2.05-1.23 3.09-1.82-.12.05-.26.11-.37.17M362.87 31.52c-4.35 1.62-6.64 2.66-7.1 2.9.78-.17 1.47-.57 2.2-.87 1.84-.77 3.69-1.53 5.54-2.26-.19.06-.45.16-.64.23">
      </path>
      <path d="M362.66 31.56c-6.22 2.03-9.71 3.39-9.87 3.48 3.62-1.12 7.14-2.55 10.73-3.75-.26.08-.61.19-.86.27">
      </path>
      <path d="M362.51 31.58c-7.44 2.23-11.56 3.67-11.76 3.76 4.29-1.24 8.5-2.75 12.76-4.05-.3.08-.7.2-1 .29M362.45 31.58c-7.73 2.14-12.43 3.65-12.73 3.75 4.63-1.24 9.18-2.75 13.79-4.05-.31.09-.74.21-1.06.3">
      </path>
      <path d="M362.47 31.55c-8.1 2.07-12.65 3.46-12.68 3.47 4.61-1.12 9.14-2.54 13.73-3.74-.32.08-.74.19-1.05.27">
      </path>
      <path d="M362.58 31.5c-7.34 1.69-11.54 2.9-11.57 2.91 4.21-.86 8.32-2.13 12.5-3.12-.28.06-.65.14-.93.21M406.74 25.42c23.58-1.53 23.58-1.53 23.99-1.64-2.38-2.27-40.31 1.94-49.16 4.09 8.42-.49 16.75-1.91 25.17-2.45M395.87 29.12c18.72.44 18.72.44 20-.17l-.07-.3c-5.27-2.47-32.96-.52-38.39.67.58.1 1.15-.01 1.73-.04 3.92-.19 8.44-.36 16.73-.16M382.71 33.17c15.22 3.57 14.94 1.48 14.74 1.03-1.37-2.96-21.22-4.02-25.18-3.25.19.14.19.14 1.23.31 3.41.54 5.47 1.03 9.21 1.91M368.16 37.3c3.36 4.94 8.87 4.63 9.11 2.1.33-3.63-8.82-7.09-10.79-6.79-.83.37 1.27 4.09 1.68 4.69M353.1 41.25c-2.71 3.92-2.01 6.35.38 5.75 5.32-1.34 7.68-12.19 7.11-12.74-.04-.04-.13-.03-.19-.03-.99.38-5 3.69-7.3 7.02M338.45 44.76c-5.87 4.09-8.47 7.13-7.52 7.6.17.09 1.27.35 5.83-2.87.07-.05 17.57-13.63 17.67-13.71 0-.02-.01-.05-.01-.07-1.1.36-9.15 4.29-15.97 9.05M326.12 47.36c-7.42 3.93-13.47 7.83-14.07 9.09.39.1.73.18 4.14-1.62.43-.22 32.73-17.83 32.96-17.96v-.01c-.63.19-11.62 4.46-23.03 10.5M317.29 48.82c-9.98 4.57-17.28 8.59-19.08 10.05.5.1.5.1 1.78-.48 8.52-3.86 16.76-8.29 25.24-12.22 6.58-3.05 13.39-5.55 19.98-8.59.02-.01.04-.03.06-.04-1.77.57-14.41 5.07-27.98 11.28M312.24 49.13c-12.34 5.15-21.19 9.62-22.67 10.67.47-.12 1.08-.32 1.52-.5 10.35-4.28 20.4-9.25 30.77-13.5 6.95-2.84 14.18-4.94 21.02-8.04-2.04.62-15.57 5.08-30.64 11.37">
      </path>
      <path d="M311.26 48.28c-13.06 5.12-22.39 9.56-24.31 10.6.5-.1.5-.1 4.42-1.79 5.52-2.39 14.74-6.39 25.45-10.53 8.36-3.23 16.94-5.83 25.31-9.04-.13.04-13.77 4.05-30.87 10.76">
      </path>
      <path d="M314.63 46.27c-13.82 5.21-24.16 10.07-24.26 10.12 21.36-8.76 21.36-8.76 52.73-19.58-.11.03-12.4 3.39-28.47 9.46M469.92 22.92c3.28.2 6.56.39 9.84.57-8.05-.72-16.13-1.18-24.23-1.39 4.8.26 9.6.54 14.39.82M449.73 30.36c24.72 3.72 25.79 1.66 25.53.93-1.36-3.77-37.39-6.92-45.22-4.92-.07.04-.17.09-.25.13.25.42.57.94 19.94 3.86M423.48 38.85c15.02 5.03 23.24 4.21 22.09 1.46-2.04-4.88-27.47-9.35-34.1-7.79-.74.32-2.12.91 6.25 4.23.84.33 3.08 1.2 5.76 2.1M393.12 47.83c8.53 7.27 18.59 6.51 18.01 1.75-.72-5.86-15.84-11.7-21.57-10.47-4.42 1.67 3.48 8.65 3.56 8.72M360.63 56.73c.83 7.6 8.53 9.44 12.61 4.67 5.37-6.28-1.56-16.42-6.93-15.77-.16.02-.38.07-.54.1-3.94 1.36-5.54 7.37-5.14 11M327.94 64.97c-3.77 6.47-1.96 9.9 2.01 8.94 9.6-2.33 16.43-20.18 12.83-21.9-.39-.18-.88-.1-1.27-.04-3.78 1.2-10.37 7.52-13.57 13M297.67 71.86c-7.21 6.8-8.77 10.97-6.08 10.93 2.38-.03 7.71-3.51 13.27-8.64 6.19-5.72 15.41-15.93 14.25-16.78-.16-.11-.45-.05-.65-.02-3.54 1.05-13.83 7.95-20.79 14.51M274.25 76.37c-6.49 4.71-13.29 10.57-12.92 12.3 3.06 1.6 37.47-25.13 38.91-27.47-.08-.04-.2-.09-.28-.13-2.97.84-15.36 7.79-25.71 15.3M258.76 78.39c-9 5.67-16.46 11.23-17.74 13.22l.23.26c2.68-.68 45.64-27.7 45.98-28.91-2.02.53-15.21 7.08-28.47 15.43M251.8 77.9c-10.57 6.15-19.66 12.27-21.21 13.91 2-.41 49.95-28.6 50.1-28.81-2.31.77-14.93 6.78-28.89 14.9M253.99 74.87c-12.72 7.16-22.27 13.41-23.18 14.05 8.83-4.96 17.37-10.43 26.24-15.32 7.84-4.32 16.06-7.92 23.79-12.45-1 .36-12.24 5.51-26.85 13.72M478.37 48.7c16.73 6.89 30.02 6.77 27.36 1.66-3.6-6.91-31.38-14.17-40.43-11.9-5.66 2.48 12.3 9.93 13.07 10.24M435.2 62.02c11.57 8.74 26.07 8.7 25.31 1.88-.89-7.99-21.09-16.55-30.2-14.43-6.36 2.43 1.6 10.07 4.89 12.55M387.31 75.65c5.38 10.47 19.12 11.05 22.13 3.18 3.16-8.25-9.02-19.99-18.62-17.93-6.49 2.25-5.96 9.98-3.51 14.75M337.67 88.71c-.87 10.22 7.88 13.08 14.81 7.67 9.46-7.39 7.74-23.26-.51-24.54-1.01-.16-1.9.02-2.62.15-7.2 2.32-11.22 11.35-11.68 16.72M289.24 100.36c-5 9.32-1.7 13.81 4.58 11.58 12.53-4.43 23.3-27.47 16.73-29.86-.7-.26-1.52-.12-2.19-.02-6.53 1.96-15.32 11.22-19.12 18.3M248.18 109.07c-7.55 8.74-8.63 14-5.31 14.03 8.83.09 33.16-29.46 30.6-32.83-.28-.37-.87-.32-1.38-.26-5.63 1.59-17.27 11.37-23.91 19.06M218.65 114.01c-9.66 8.92-13.58 14.98-11.66 15.48 3.71.97 38.51-29.97 38.79-34.49-.17-.06-.39-.13-.56-.18-4.08 1.08-17.24 10.58-26.57 19.19M201.56 115.17c-9.3 7.6-16.6 14.83-16.61 16.45.89 0 2-.01 14.07-9.72 1.21-.98 29.75-23.96 29.6-25.43-2.31.54-14.96 8.81-27.06 18.7M197.84 112.51c-10.17 7.86-18.19 14.89-20.06 16.94.72-.02 44.98-34.18 45.26-34.52-1.75.71-12.94 8.1-25.2 17.58M584.79 47.73c1.19.42 2.79.96 3.99 1.35-4.2-1.61-8.41-3.16-12.64-4.63 2.79 1.13 5.7 2.24 8.65 3.28M492.79 79.35c14.75 10.8 31.79 10.63 30.8 2.14-1.1-9.44-24.98-21.2-37.02-18.25-7.46 2.95-.14 11.45 6.22 16.11M432.49 97.21c9.63 12.79 28.16 12.21 29.61 1.88 1.47-10.46-15.59-22.89-27.65-20.14-8.54 3.05-6.28 12.52-1.96 18.26M367.87 114.93c3.43 13.75 19.85 14.69 26.14 4.49 7.06-11.43-3.42-27.34-16.24-24.67-9.51 3.14-11.51 13.69-9.9 20.18M302.84 131.36c-2.03 12.86 8.32 16.5 17.52 9.84 13.15-9.52 13.42-30.07 3.14-31.77-1.31-.22-2.53.01-3.52.19-9.82 3.02-16.04 14.76-17.14 21.74M242.43 145.13c-5.03 10.42-2.44 17.15 5.55 14.39 15.53-5.36 28.11-33.91 19.77-36.97-.93-.34-1.98-.19-2.83-.06-9.15 2.63-18.83 15.06-22.49 22.64M195.56 154.2c-7.13 9.98-8.76 17.66-3.56 16.76 10.22-1.75 36.51-36.39 29.93-39.43-.36-.17-.93-.11-1.33-.08-6.51 1.76-18.2 13.19-25.04 22.75M164.44 158.31c-9.61 11.06-13.05 18.51-10.13 18.29 5.72-.43 39.78-38.68 36.09-40.52-.11-.06-.29-.03-.42-.05-4.12 1.02-16.29 11.63-25.54 22.28M150.28 157.42c-8.43 8.8-15.13 17.06-15.58 19.21 3.23.83 39.33-39.84 39.51-40.29l-.07-.14c-1.93.35-13.32 10.22-23.86 21.22M170.49 135.16c-8.9 8.7-20.96 20.11-29.47 29.19 12.6-13.62 24.57-24.77 30.59-30.2l-1.12 1.01M491.03 121.81c12.91 14.84 33.96 13.92 34.95 1.84 1-12.3-20.09-26.7-34.2-23.34-10.13 3.76-6.54 14.84-.75 21.5M414.27 143.68c6.98 15.08 28.48 16.86 33.83 2.8 4.65-12.23-9.49-29.66-25.38-26.16-11.48 3.9-11.86 16.01-8.45 23.36M334.61 164.68c1.72 15.6 19.75 19.15 29.67 5.85 9.97-13.36 1.97-33.1-12.59-31.06-.49.07-1.12.22-1.61.32-12.14 3.84-16.35 16.87-15.47 24.89M256.84 183.42c-2.6 13.89 7.93 20.29 19.75 12.01 16.07-11.24 17.83-35.94 5.91-38.13-1.57-.29-3.06-.03-4.26.17-11.95 3.52-19.83 17.56-21.4 25.95M190.63 197.5c-5.16 12.17-2.44 20.03 5.94 17.16 15.98-5.48 29.66-39.18 21-42.98-1.03-.45-2.2-.31-3.13-.2-9.88 2.73-20.05 17.14-23.81 26.02M142.88 205.54c-7.28 12.37-8.22 21.34-1.99 19.21 11.08-3.79 34-40.85 27.56-44.55-.36-.21-.97-.19-1.39-.18-6.44 1.65-17.7 14.53-24.18 25.52M115.09 207.5c-7.85 11.31-12.23 20.93-9.57 21 5.13.14 35.79-42.71 32.48-45.4-.09-.07-.25-.07-.35-.11-3.87.86-15 13.61-22.56 24.51M108.72 203.35c-7.83 10.55-14.5 20.56-15.01 22.12 1.58-.99 33.69-44.75 33.81-45.07-1.38.78-10.07 11.19-18.8 22.95M477.84 173.74c9.92 16.42 34.36 18.03 39.02 2.57 4.25-14.08-13.6-33.05-32.08-28.78-12.95 4.58-11.85 18.08-6.94 26.21M386.42 198.88c5.57 17.84 29.15 20.13 37.66 3.67 7.66-14.82-4.87-35.4-23.87-31.38-14.04 4.6-16.52 18.97-13.79 27.71M294.26 222.24c.87 16.96 18.7 22.02 31.28 8.86 13.47-14.09 8.38-38.31-8.02-38.11-1.12.01-2.6.28-3.7.49-14.28 4.35-20.04 19.44-19.56 28.76M208.25 241.93c-2.75 15.69 8.05 23.14 20.64 14.24 17.58-12.43 19.86-40.58 6.98-43.39-1.73-.38-3.36-.12-4.68.08-12.95 3.68-21.21 19.21-22.94 29.07M141.12 255.02c-5.01 14.43-1.24 23.46 7.92 18.96 15.12-7.43 28.83-44.7 17.47-47.47-.66-.16-1.6-.08-2.28-.02-9.92 2.65-19.66 18.59-23.11 28.53M96.23 261.09c-6.26 13.44-6.95 23.55-1.48 21.64 10.18-3.56 30.36-44.19 24.27-48.84-.32-.24-.9-.29-1.3-.32-6.05 1.46-15.86 15.42-21.49 27.52M75.3 260.08c-5.55 10.38-10.58 22.12-9 23.41 3.95-.65 29.38-47.32 26.94-49.44-2.62.43-11.55 14.06-17.94 26.03M711.21 154.03c15.61 14.41 34.26 18.03 33.81 6.56-.51-12.98-28.3-35.79-42.9-31.6-8.5 4.28 1.06 17.63 9.09 25.04M449.07 235.41c8.14 18.62 34.84 20.71 42.64 3.35 7.29-16.22-8.91-38.31-30.09-33.59-15.49 5.23-16.66 20.83-12.55 30.24M345.42 262.81c4.39 19.78 29.92 22.7 40.76 4.66 10.05-16.71-1.39-40.24-22.66-35.93-16.14 5.08-20.3 21.34-18.1 31.27M244.04 287.32c.5 18.58 19.51 24.53 33.35 10.44 15.22-15.5 10.77-42.63-7.01-42.7-1.23 0-2.87.27-4.08.48-15.82 4.64-22.54 21.38-22.26 31.78M157.09 305.91c-2.47 17.31 7.96 25.83 20.28 16.56 16.84-12.66 20.52-46.26 5.25-47.93-.96-.1-2.25.05-3.21.17-12.83 3.53-20.78 20.37-22.32 31.2M94.09 316.66c-4.1 15.45-.39 25.6 7.77 21.28 13.85-7.32 25.5-47.56 14.84-51.26-.61-.21-1.49-.19-2.13-.16-9.24 2.34-17.54 19.04-20.48 30.14M56.97 319.5c-5.02 14.52-5.7 25.48-1.48 23.92 8.11-2.99 24.96-49.59 18.98-52.48-.16-.07-.39-.08-.56-.12-4.69 1-12.44 15.67-16.94 28.68M48.21 312.84l-7.34 20.2c-1.65 4.93-2.01 6.29-2.07 6.98 1.7-1.49 20.45-52.07 20.49-52.46-.23.19-.71.57-4.01 8.15l-7.07 17.13M716.13 213.32c14.2 17.54 35.9 20.77 37.44 5.58 1.61-15.82-22.14-39.8-39.53-35.06-11.64 5.23-4.9 20.86 2.09 29.48M411.94 303.87c7.16 20.81 35.31 23.34 45.65 4.1 9.63-17.93-5.46-42.66-28.85-37.65-17.57 5.73-20.4 23.07-16.8 33.55M299.39 332.45c4.05 21.74 30.64 25.23 43.12 5.66 11.57-18.15.54-44.1-22.38-39.7-17.67 5.37-22.76 23.14-20.74 34.04M194.11 356.6c.76 20 19.48 26.88 33.38 12.26 15.92-16.74 11.38-45.79-7.25-46.4-1.26-.04-2.93.21-4.17.4-15.86 4.5-22.39 22.44-21.96 33.74M111.69 372.74c-1.5 18.28 8.61 27.85 19.68 18.63 15.39-12.82 17.59-48.75 3.14-51.25-.9-.16-2.14-.06-3.05.03-12.05 3.2-18.81 20.99-19.77 32.59M56.39 380.3c-2.72 16.19.88 27.3 7.55 23.31 12.12-7.25 20.06-52.48 9.54-54.38-.29-.05-.68-.02-.97-.03-7.82 1.87-14.14 19.31-16.12 31.1M30.3 379.22c-3.35 15.1-4.05 26.97-1.54 25.92 5.02-2.11 16.45-52.66 12.48-55.2-2.85.44-7.9 15.54-10.94 29.28M789.1 252.29c12.47 18.05 30.91 23.07 33.45 9.11 2.92-16.1-19.76-45.4-35.96-40.74-9.92 4.95-4.5 21.48 2.51 31.63M704.81 281.42c12.71 20.62 37.91 23.06 41.48 4.02 3.35-17.86-17.39-42.39-36.84-37.33-13.85 5.71-11.05 22.91-4.64 33.31M366 378.3c6.59 22.16 36.06 25.26 47.79 5.03 11.12-19.2-3.4-46.07-28.3-41-19.04 5.99-22.86 24.64-19.49 35.97M248.38 406.79c4.28 22.88 31.72 27.12 44.49 6.87 12.04-19.1.78-46.97-22.91-42.76-18.5 5.43-23.76 24.26-21.58 35.89M147.12 428.51c1.71 21.37 19.26 29.27 31.83 14.33 14.9-17.72 7.9-50.42-10.55-49.29-.6.04-1.4.19-2 .27-14.88 4.09-20.23 22.75-19.28 34.69M73.58 441.12c-.04 18.99 9.5 29.61 18.56 20.66 13.51-13.34 12.15-53.12-1.84-53.88-.42-.02-.97.05-1.39.07-10.53 2.69-15.3 21-15.33 33.15M30 444.58c-1.01 16.73 2.32 28.76 6.97 25.24 7.05-5.33 13.66-54.73 3.13-56.57-5.73 1.23-9.36 19.06-10.1 31.33M17.11 454.68l-.49 10.03c-.02.62-.05 1.25 0 1.87 1.05-1.76 5.57-56.6 5.54-57.03-.17.27-.19.29-.49 2.19-1.46 12.87-3.82 30.01-4.56 42.94M781.9 323.23c10.84 20.67 32.19 25.1 36.86 7.64 5-18.7-14.03-47.84-32.69-42.75-12.6 5.67-10.02 23.94-4.17 35.11M683.94 355.28c10.71 22.15 37.75 24.81 44.51 4.38 6.45-19.48-12.31-46.26-34.29-40.74-16.14 6.26-15.69 25.03-10.22 36.36M321.4 455.25c6.98 23.52 36.8 27.15 49.1 5.97 11.89-20.48-2.57-48.53-28.86-43.46-19.83 6.05-23.78 25.57-20.24 37.49M204.16 482.26c5.28 23.69 31.8 28.79 43.66 8.38 11.35-19.53-.87-48.77-24.38-44.99-17.8 5.07-21.99 24.45-19.28 36.61M111.83 500.47c3.37 21.83 20.03 30.71 30.21 16.1 11.8-16.93 4.08-53.02-15.34-51.02-13.43 3.58-16.78 22.58-14.87 34.92M49.45 509.19C51.39 528.52 60.41 540 67 531.52c9.54-12.28 5.97-55.18-8.1-55.41-8.6 2.08-10.71 20.59-9.45 33.08M19.36 508.33c1.04 16.97 4.18 29.74 6.59 26.79 3.73-4.56 2.92-54.55-3.6-57.83-3.34.53-3.76 18.47-2.99 31.04M846.92 370.72c7.89 19.88 23.3 27.02 29.44 13.63 3.25-7.09 2.06-15.83 1.61-19.12-1.89-5.87-3.88-11.69-5.96-17.45-4.5-7.7-11.76-16.34-20.82-13.74-11.44 5.73-8.69 25.54-4.27 36.68M758.21 401.52c8.98 22.4 31.58 26.97 39.63 8.01 8.58-20.2-7.83-51.49-29.39-45.88-15.89 6.56-14.72 26.71-10.24 37.87M648.91 435.56c9.37 23.73 37.43 26.6 46.91 4.8 9.22-21.21-7.54-49.35-32.15-43.42-18.07 6.66-19.51 26.59-14.76 38.62M273.87 534.94c7.94 23.89 37.94 28.18 49.39 7.07 11.26-20.77-4.16-49.8-30.38-45.11-19.88 5.85-23.08 25.77-19.01 38.04M165.3 558.34c6.78 23.24 29.26 30.36 39.44 12.5 10.82-18.99-2.52-51.86-24.96-48.81-16 4.43-18.1 23.9-14.48 36.31M86.07 572.09c5.32 20.94 19.42 31.14 26.94 19.49 9.69-15.03-.96-54.85-18.31-53.85-11.24 2.89-11.82 21.84-8.63 34.36M38.59 576.11c4.08 18.5 11.61 30.6 15.5 24.88 6.04-8.87-2.32-55.61-13.46-57.2-6.03 1.32-4.82 19.69-2.04 32.32M30.92 598.22c.04.14.09.34.14.48-.32-4.52-11-58.26-11.09-58.57l.01.58c2.9 17.32 6.75 40.45 10.94 57.51M824.71 450.68c6.05 21.19 23.45 27.18 32.1 11.06 10.4-19.39-1.48-55.09-21.39-49.71-13.29 5.98-14.27 26.2-10.71 38.65M725.15 483.31c7.08 22.08 30.57 26.35 41.21 7.5 11.75-20.83-2.17-52.79-26.17-46.82-16.96 6.6-19 26.97-15.04 39.32M608.7 518.11c8.15 23.12 36.92 25.8 48.09 4.49 11.02-21.02-4.73-49.93-30.4-43.99-19.39 6.87-22.02 27.23-17.69 39.5M235.77 613.01c9.86 24.16 40 27.51 48.13 5.36 7.18-19.56-9.81-46.14-33.44-42.34-18.39 5.27-19.66 24.8-14.69 36.98M141.06 631.76c8.76 21.95 29.42 29.47 36.24 13.19 7.29-17.43-8.78-50.06-28.03-48.06-13.78 3.73-13.09 22.64-8.21 34.87M76.87 640.83c7.57 19.74 20.51 30.07 24.74 19.74 5.61-13.73-9.36-52.38-23.44-52.5-8.74 2.15-6.02 20.45-1.3 32.76M45.56 640.13c5.86 16.29 12.4 28.16 14.01 25.39 2.37-4.09-12.93-52.98-20.04-56.06-2.91.49.87 16.3 6.03 30.67M875.19 501.08c2.67 18.6 13.5 26.22 21.86 15.39 3.99-5.18 5.52-12.4 6.02-14.77-.45-9.44-1.18-18.93-2.17-28.46-5.38-12.19-11.86-10.32-13.99-9.71-11.01 5.49-13.48 25.26-11.72 37.55M788.76 531.16c4.25 20.37 22.35 25.77 33.39 9.96 13.92-19.93 3.76-52.21-15.32-48.65-.64.12-1.46.38-2.09.55-15.2 6.26-18.5 26.07-15.98 38.14M682.05 564.45c6.3 22.51 31.85 25.07 43.39 4.36 11.34-20.36-1.25-48.34-25.03-42.58-18.18 6.68-21.68 26.37-18.36 38.22M562.54 598.78c8.29 23.41 38.82 24.35 49.5 1.53 9.32-19.93-5.7-44.93-30.53-39.35-19.94 6.75-23.1 26.18-18.97 37.82M208.24 684.93c11.34 21.45 36.44 26.33 42.63 8.29 6.07-17.7-12.59-44.78-34.02-41.8-15.84 4.38-14.57 22.23-8.61 33.51M130.14 698.56c10.45 19.17 27.78 27.33 31.96 15.06 5.04-14.78-13.89-47.44-30.76-46.34-11.04 2.83-7.35 20-1.2 31.28M83.08 702.66c9.17 16.98 20.18 27.35 21.82 20.55 2.36-9.79-17.69-48.48-28.13-49.71-5.82 1.26.18 17.81 6.31 29.16M75.45 710.38l6.62 11.52c-4.7-8.57-23.57-45.61-26.57-51.89V670c5.88 12.17 13.35 28.59 19.95 40.38M841.09 577.51c1.06 17.66 12.11 24.61 22.32 14.05 15.6-16.15 14.16-51.63-2.08-51.29-1.04.02-2.41.38-3.42.66-12.77 5.66-17.52 24.8-16.82 36.58M748.23 608.06c3.25 20.35 22.97 24.2 35.17 6.85 14.12-20.08 5.48-47.66-13.8-44.03-.67.13-1.55.39-2.22.56-16.25 6.25-20.98 25.18-19.15 36.62M639.24 640.72c5.99 21.85 33.41 22.7 44.44 1.39 9.88-19.09-1.96-42.96-24.89-37.55-18.54 6.51-22.6 25.07-19.55 36.16M521.24 673.43c8.47 21.31 38.4 22.05 48.51 1.2 9.01-18.57-5.93-41.75-30.28-36.44-19.69 6.41-22.51 24.47-18.23 35.24M198.34 748.25c13.37 19.16 35.85 24.2 38.19 8.55 2.33-15.59-18.24-40.24-36.26-38.18-13.15 3.49-9.05 19.43-1.93 29.63M136.96 757.09c11.79 16.14 26.75 24.48 28.58 15.94 2.48-11.57-20.67-43.54-34.49-43.37-8.31 1.98-1.55 17.23 5.91 27.43M106.41 756.76c6.08 8.4 16.77 21.57 19.56 21.18 2.47-3.47-26.6-44.42-33.1-46.61-.12.02-.28.04-.4.06-1.61 2.23 7.69 16.74 13.94 25.37M873.07 624.89c-1.69 14.96 3.42 22.69 11.14 16.89 3.58-2.69 6.23-7.09 7.65-9.46a465.35 465.35 0 0 0 7-38.07c-1.95-4.29-4.04-5.4-8.01-4.22-10.68 5.25-16.58 24.17-17.78 34.86M795.95 651.86c.06 17.64 12.27 23.14 24.19 10.91 15.91-16.33 15.69-47.18-.34-46.49-1.13.05-2.6.43-3.69.72-13.97 5.69-20.2 23.81-20.16 34.86M700.31 681.79c2.8 18.86 22.11 22.06 35.02 5.79 14.03-17.68 7.97-42.18-10.13-40.96-1.37.09-3.16.51-4.48.84-16.69 6.08-21.98 23.74-20.41 34.33M592.85 712.74c6.33 19.97 32.72 20.52 43.45.91 9.61-17.58-2.14-39.39-24.63-34.25-18.32 6.16-22.03 23.2-18.82 33.34M480.4 742.73c9.9 19.82 40.47 19.09 47.4-1.14 5.78-16.89-9.2-35.55-31.88-30.8-18.78 5.88-20.38 22.21-15.52 31.94M201.25 803.47c14.52 15.65 33.58 21.42 33.43 10.12-.15-11.79-22.81-36.84-38.9-35.6-10.16 2.56-2.92 16.44 5.47 25.48M157.81 807.47c12.63 13.1 25.77 21.33 25.57 16.01-.3-7.87-28.82-38.61-38.86-39.45-4.79 1 3.17 12.94 13.29 23.44M161.75 821.75c-8.74-8.38-31.78-33.25-37.43-40 10.98 12.21 25.74 28.44 37.43 40M828.06 694.36c-2.65 13.93 2.27 20.69 10.95 15.08 16.29-10.53 26.79-45.73 14.41-48.29-1.47-.3-2.94.11-4.12.44-11.93 5.25-19.36 22.88-21.24 32.77M748.37 720.63c-.44 15.84 11.54 20.63 23.74 9.47 15.91-14.54 17.95-41.07 3.26-42.38-2.06-.18-3.97.31-5.5.7-14.36 5.49-21.22 22.14-21.5 32.21M654.67 748.75c3.04 17.37 23.51 19.11 35.33 3.01 12.65-17.24 4.65-37.99-13.37-34.69-.68.12-1.56.37-2.23.53-16.37 5.7-21.39 21.65-19.73 31.15M553.16 776.93c7.51 18.19 34.31 17.34 42.16-1.35 6.6-15.71-5.24-32.92-25.95-28.35-17.32 5.61-19.91 20.74-16.21 29.7M450.01 803.36c11.68 17.32 39.76 16.67 44.19-1.01 3.69-14.74-12.22-31.05-32.94-26.91-17.24 5.21-16.96 19.46-11.25 27.92M221.02 849.42c14.69 11.86 30.64 18.07 29.94 11.65-.87-7.98-29.39-33.15-42.56-32.82-6.51 1.53 1.48 12.18 12.62 21.17M194.21 849.27c9.86 7.82 21.7 16.04 23.61 15.81-.69-4.38-39.01-33.95-43.58-35.21-.1.01-.22.03-.32.04.27 3.43 20.09 19.2 20.29 19.36M840.37 736.58c-3.89 9.41-5.43 18.51.39 16.25 3.24-1.26 7.32-5.81 8.66-7.3 6.47-11.88 12.4-24.15 17.77-36.75-.67-3.4-2.5-3.15-4.48-2.56-8.92 4.33-18.44 20.92-22.34 30.36M777.63 758.58c-2.66 10.7.57 18.72 10.45 13.02 16.01-9.24 28.22-38.98 17.66-43-1.93-.73-3.62-.28-5.42.2-12.38 5-20.49 20.92-22.69 29.78M699.65 783.02c-.35 14.43 12.37 17.82 24.29 6.49 14.55-13.84 15.68-34.96 1.91-35.86-2.01-.13-3.88.33-5.38.7-14.01 5.07-20.61 19.82-20.82 28.67M611.94 808.32c3.74 14.36 23.9 17.03 34.39.58 9.57-15.01.92-31.11-15.17-28.23-.64.11-1.47.34-2.1.48-15.36 5.14-19.26 18.98-17.12 27.17M520.01 832.86c9.67 16.14 35.39 14.15 39.32-3.04 2.66-11.66-8.56-26.28-27.41-22.29-15.74 4.91-16.44 17.77-11.91 25.33M429.37 855.05c12.54 12.85 39.05 14.49 40.14-.86.79-11.05-15.07-26.1-34.62-22.42-15.17 4.41-12.36 16.27-5.52 23.28M255.02 886.23c11.6 6.9 25.76 13.44 27.52 11.78.11-4.56-38.45-28.04-46.89-28.55-3.79.76 6.43 8.42 12.36 12.36 1.94 1.3 4.82 3.11 7.01 4.41M258.24 892.44c-12.84-7.11-27.27-16.16-35.89-21.98 10.73 6.67 24.89 15.8 35.89 21.98M790.37 794.43c-4.28 8.14-6.27 15.96-.5 13.9 13.01-4.64 35.54-38.55 27.39-41.22-.89-.29-2.07.04-2.92.28-9.27 4.03-19.41 18.38-23.97 27.04M729.74 814.5c-2.76 9.2-.06 15.77 9.24 10.85 15.44-8.18 27.99-33.81 18.14-37.05-1.82-.6-3.46-.17-5.2.28-11.85 4.48-19.89 18.28-22.18 25.92M658.16 836.04c.16 11.57 11.83 15.58 23.54 3.82 12.06-12.11 11.99-28.3-.11-28.87-1.87-.09-3.6.33-4.99.66-12.89 4.47-18.54 16.96-18.44 24.39M580.46 857.67c5.81 13.77 26.73 12 32.45-2.75 4.47-11.52-4.13-23.17-19.37-19.77-13.71 4.42-15.9 15.83-13.08 22.52M501.32 878.01c10.66 11.57 33.93 11.88 34.74-2.67.52-9.35-11.37-21.18-28.24-17.75-12.41 3.73-13.05 13.31-6.5 20.42M426.05 895.56c14.5 9.8 37.81 11.05 34.91-.67-2.13-8.61-19.97-20.33-36.28-17.47-12.42 3.48-6.67 12.7 1.37 18.14M302.77 914c11.55 4.9 23.23 9.14 25.95 9.66-1.32-2.05-50.42-22.02-50.84-22.1-.07.01-.16.02-.23.02 1.36 1.66 14.1 7.74 25.12 12.42M781.78 829.48c-3.54 4.15-11.46 13.75-8.6 13.32 1.28-.19 4.34-2.44 5.49-3.29A383.943 383.943 0 0 0 809 806.16c0-1.12-.54-1.13-1.83-.73-7.8 3.71-22.52 20.69-25.39 24.05M738.08 844.88c-3.73 5.79-6.56 12.27-2.24 11.46 10.57-1.96 34.96-30.6 29.32-34.42-.94-.63-2.14-.31-3.41.04-9.47 3.78-19.62 16.64-23.67 22.92M683.52 862.04c-2.28 7.09-.27 12.43 7.96 8.39 12.65-6.22 26-27.36 16.59-30.02-1.65-.47-3.15-.09-4.73.31-10.66 3.82-17.81 15.1-19.82 21.32M621.95 879.85c1.58 11.13 15.5 10.63 23.64-.86 7.42-10.48 3.11-20.9-7.81-18.91-.46.09-1.07.25-1.53.36-11.23 3.73-15.12 13.59-14.3 19.41M557.3 897.16c7.62 9.79 26.45 9.17 27.94-3.62.98-8.38-7.93-16.33-20.45-13.64-10.55 3.27-12.09 11.34-7.49 17.26M493.42 912.85c12 7.45 31.48 7.89 29.72-1.38-1.34-7.05-15.85-16.35-29.87-13.65-10.14 2.93-7.81 10.08.15 15.03M436.88 925.23c13.84 5.48 32.34 7.33 30 1.69-2.25-5.43-24.98-16.56-39.19-14.32-8.77 2.37.75 8.4 1.87 9.08 1.38.84 3.77 2.14 7.32 3.55M727.89 872.76c-9.81 8.91-10.01 9.88-10.11 10.34 1.8.54 14.53-8.02 23.31-15.15 9.73-7.91 14.69-13.9 13.7-14.92-.26-.27-.96-.07-1.52.09-5.85 2.49-17.03 12.05-25.38 19.64M690.45 885.18c-1.62 2.01-6.69 8.59-3.84 8.64 6.09.1 31.88-21.39 28.62-26.39-.62-.96-2.26-.52-3.25-.27-7.93 2.96-17.26 12.72-21.53 18.02M646.19 898.52c-1.75 5.45.16 9.02 7.2 5.31 10.5-5.53 20.09-19.84 12.65-21.64-1.39-.34-2.64-.03-3.97.29-8.84 3.03-14.34 11.25-15.88 16.04M598.06 911.93c3.7 8.29 17.01 5.85 20.34-3.73 2.22-6.37-2.3-12.18-11.45-10.11-9.09 2.91-10.67 9.85-8.89 13.84M549 924.56c8.2 4.95 23.66 5.53 22.26-2.2-.95-5.21-10.49-11.57-21.23-9.35-8.07 2.41-7.05 7.92-1.03 11.55M502.24 935.49c11.38 3.25 27.28 3.81 25.43-.04-1.68-3.49-20.36-11.49-32.95-9.21-7.11 1.97-1.24 5.6.01 6.3 1.78 1.01 4.59 2.11 7.51 2.95M464.6 943.1c11.94 2.09 26.45 2.83 27.24 1.39-1.01-2.2-33.73-9.86-43.51-8.51-.87.23-2.91.75-.36 2.34 1 .61 5.11 2.76 16.63 4.78M424.5 947.1l25.71 2.62c-18.05-1.44-35.83-4.9-53.76-7.23.66.19.82.24 3.61.76l24.44 3.85M698.4 898.14c-5.41 3.13-11 5.93-16.41 9.07.66-.23.66-.23 2.8-1.23a357.58 357.58 0 0 0 40.92-23.53l.25-.25-.37-.1c-9.64 4.36-18.08 10.77-27.19 16.04M676.76 905.78c-3.64 2.4-7.61 4.29-10.91 7.2 4.77.14 35.55-18.7 35.41-21.67-.27-.14-.41-.12-1.13.08-3.7 1.43-6.32 3.16-23.37 14.39M649.69 914.31c-4.79 4.4-4.85 4.99-4.89 5.27 3.23 1.62 26.21-14.56 24.83-17.48-.31-.67-1.58-.34-2.33-.15-5.57 1.96-12.65 7.8-17.61 12.36M619.1 923.17c-.72 3.1.68 5.36 6.99 1.55 7.5-4.52 11.05-11.09 6.43-11.92-1.06-.19-2.05.04-2.99.27-6.37 2.08-9.78 7.3-10.43 10.1M586.94 931.8c5.1 3.15 14.92 2.53 13.92-3.11-.52-2.9-4.83-6.12-11.59-4.64-5.87 1.8-5.94 5.52-2.33 7.75M555.12 939.63c7.25 1.06 19.13.69 18.15-.93-.85-1.41-14.94-6.39-24.37-4.51-4.16 1.19-2.26 2.72-1.25 3.32.69.4 2.79 1.43 7.47 2.12M526.87 945.83c10.37.3 21.55-.59 22.66-1.15-.91-.7-30.34-3.35-37.72-2.11-.81.22-.96.27-1.24.56.04 1.26 7.05 2.43 16.3 2.7M505.89 949.61c11.76-.12 22.78-1.03 25.4-1.39-.23-.03-44.11-.7-47.93-.25-.12.03-.28.07-.39.09 0 .07-.01.16-.01.23 2.06.74 11.2 1.43 22.93 1.32M500 950.75c3.12-.14 7.27-.31 10.39-.49-15.21.71-30.42-.3-45.63.05 1.13.31 10.18.68 19.71.7l15.53-.26M644.43 922.92c-.62.23-1.44.52-2.06.74l4.15-1.5 6.34-2.37c13.32-5.18 17.3-7.42 17.33-7.45l-.19.03c-8.59 3.37-16.91 7.38-25.57 10.55M633.5 926.56c-1.25.48-3.76 1.41-6.6 2.31l.93-.3c1.23-.4 2.88-.93 4.12-1.34 14.94-4.99 21.29-8.71 21.84-9.19-.13-.06-.34-.01-.48.03-6.8 2.41-13.1 5.93-19.81 8.49M620.52 930.48c-.95.44-2.42 1.08-4.18 1.6l3.06-.9c9.59-2.91 14.75-6.11 14.72-6.93-.21-.14-.37-.11-1.09.07-4.47 1.47-8.29 4.22-12.51 6.16M606.38 934.44c.15.24.44.31.86.21.74-.2 1.73-.47 2.47-.68 3.56-1.03 4.63-2.71 3.58-3.29-.79-.44-2.24-.09-2.72.02-3.42 1.05-4.66 3.02-4.19 3.74M591.93 938.17c1.8-.2 3.77-.56 5.87-1.07.85-.21 1.98-.49 2.82-.71-1.31.31-2.65.26-4.73.13-3.79-.22-6.15-.24-8.55.29-1.79.52-1.58.92-1.08 1.16.61.31 2.47.55 5.67.2M578.11 941.41c1.51-.25 3.01-.54 4.5-.83l6.51-1.42 1.16-.27c-8.43 1.89-17.13 1.66-25.58 3.34-.19.05-.44.13-.63.2.01.05.03.11.04.16 1.44.33 6.83.02 14-1.18M565.58 943.77c-6.65.99-13.36 1.41-19.99 2.51-.07.02-.17.04-.25.06.7.22 7.16-.52 7.43-.55 3.84-.59 8.97-1.38 12.81-2.02M361.81 31.62c-6.07 1.21-10.56 2.4-11.19 2.59 4.32-.89 8.58-2.02 12.9-2.92-.52.09-1.2.22-1.71.33M362.37 31.43c-4.64.64-7.8 1.47-7.83 1.48.28-.02.56-.1.83-.15 3.58-.72 5.33-1.03 8.13-1.48-.33.05-.78.11-1.13.15">
      </path>
      <path d="M363.02 31.24c-2.08-.14-3.78.26-3.95.33.29.04.58-.02.86-.05 1.19-.11 2.38-.19 3.58-.24-.14-.01-.34-.03-.49-.04M363.72 31.05c.65-.74.66-.75.66-.87-.14-.12-1.01.14-.98.66.01.15.07.3.12.44.05-.07.14-.16.2-.23M364.41 30.88c1.31-.58 2.64-1.13 3.98-1.66.26-.1.54-.18.78-.33-.02 0-2.12.5-5.65 2.4.26-.13.62-.29.89-.41">
      </path>
      <path d="M365.04 30.74c2.91-1.03 5.87-1.91 8.78-2.92-.03.01-3.5.86-10.31 3.47.46-.17 1.07-.39 1.53-.55M365.53 30.65c3.97-1.25 7.97-2.37 11.96-3.55-.03 0-4.59 1.09-13.97 4.19.6-.2 1.4-.46 2.01-.64">
      </path>
      <path d="M365.85 30.61c4.72-1.36 9.53-2.37 14.21-3.89-.05.01-5.41 1.23-16.54 4.56.69-.2 1.63-.47 2.33-.67">
      </path>
      <path d="M365.98 30.62c5.08-1.35 10.24-2.4 15.29-3.87-.04.01-5.35 1.1-17.76 4.53.74-.2 1.73-.46 2.47-.66">
      </path>
      <path d="M365.92 30.69c5.05-1.24 10.16-2.17 15.19-3.52-.03 0-5.16.93-17.59 4.11.72-.17 1.68-.42 2.4-.59">
      </path>
      <path d="M378.78 28.13c.2-.04.47-.1.67-.15-.02 0-4.19.58-15.94 3.3 5.09-1.16 10.17-2.21 15.27-3.15M323.35 42.81c-3.07 1.16-7.17 2.69-10.23 3.89 7.45-2.93 7.45-2.93 29.82-10.23-.06.01-6.7 1.71-18.08 5.8l-1.51.54M335.88 38.42c3.97-1.32 8-2.46 12-3.68-.24.04-2.86.71-6.58 1.9-1.62.53-3.79 1.24-5.42 1.78M349.05 34.22c1.64-.49 3.29-.92 4.94-1.38l.09-.03c-.48.06-1.85.46-1.86.47-.95.28-2.22.66-3.17.94M359.07 31.31l-.14.04c.63-.17 1.27-.31 1.9-.47.2-.06.38-.16.58-.21l-2.34.64M369.03 28.65l-1.03.27c-.09.02-.2 0-.26.1.08.01.16-.02.24-.04.91-.24 1.82-.52 2.73-.75l-1.68.42M380.73 25.82l-2.68.62c-2.4.57-3.14.85-3.14.85.02 0 .05-.01.08-.01 2.6-.64 5.19-1.34 7.81-1.92l-2.07.46M405.29 20.92c-2.96.53-6.9 1.25-9.85 1.81-8.6 1.57-14.33 3.21-14.39 3.23h.01c16.88-3.83 16.88-3.83 24.23-5.04">
      </path>
      <path d="M415.23 19.32c4.45-.71 9.42-1.41 13.65-1.92-2.7.35-6.31.82-9.01 1.2-20.92 2.89-34.28 6.56-34.35 6.58 25.24-5.15 25.24-5.15 29.71-5.86">
      </path>
      <path d="M420.36 19.06c8.24-1.24 16.55-2 24.8-3.16-15.08.61-49.82 6.81-56.97 9.06 23.2-4.55 23.2-4.55 32.17-5.9">
      </path>
      <path d="M421.12 20.05c8.78-1.16 17.63-1.62 26.37-3.07-4.13-.92-47.9 5.28-58.54 8.3 29.73-4.91 29.73-4.91 32.17-5.23M448.32 15.46c3.05-.26 11.35-.9 22.52-1.23-6.76.36-15.77.77-22.52 1.23">
      </path>
      <path d="M487.18 14.74c8.37-.01 16.73.72 25.1.34-10.33-1.82-54.65-.73-57.59.46 10.84.1 21.65-.79 32.49-.8M551.6 21.31c24.14 3.56 24.14 3.56 25.59 3.52-3.15-3.45-53.58-9.08-56.43-8 .84.31.99.37 10.08 1.58 3.71.49 11.44 1.52 20.76 2.9M614.54 32.63c9.58 2.72 15.71 4.65 22.8 6.9-.01 0-.03-.01-.04-.02-15.44-4.68-36.08-10.79-51.76-14.58-.82-.18-1.63-.37-2.46-.51l.01.01c10.43 2.96 21.03 5.24 31.45 8.2M609.24 38.96c17.18 5.23 26.2 7.25 26.81 6.01-2.24-4.35-48.22-17.86-54.06-15.88.15.52.51 1.73 27.25 9.87M674.06 57.32c17.33 7.64 21.94 9.31 23.53 9.48l.07-.3c-6.21-5.67-49.21-23.47-51.55-22.35.79.79 1.54 1.53 27.95 13.17M655.81 68.14c16.65 8.02 29.69 11.34 28.48 7.24-2.12-7.21-42.04-25.12-50.24-22.54-3.67 2.98 21.5 15.17 21.76 15.3M730.38 83.52c1.81 1.11 5.45 3.36 9.57 6.02l-22.13-13.49-7.89-4.42c8.19 4.49 15.64 8.94 20.45 11.89M723.88 92.18c14.99 9.31 25.63 13.95 24.75 10.78-1.53-5.53-41.16-31.35-47.82-28.94-1.62 2.79 22.82 18.01 23.07 18.16M708.15 117.73c11.99 3.86 14.41 0 11.59-5.23-6.38-11.8-35.58-27.95-45.28-25.05-1.43.84-2.47 1.83-.64 5.45 11.74 7.72 23.19 16 34.33 24.83M782.19 124.12c7.89 6.4 17.74 14.16 19.84 14.8.3-2.83-37.95-34.18-43.53-35.69-.04.02-.09.06-.13.08.75 2 18.42 16.43 23.82 20.81M759.65 137.85c13.95 11.74 26.85 17.22 27.06 11.51.31-8.67-32.96-38.04-43.52-34.64-4.18 3.25 7.88 15.91 16.46 23.13M820.99 174.21c11.7 12.45 21.5 19.5 21.38 15.39-.17-6.29-32.13-43.29-38.88-40.75-1.93 2.86 9.71 17.07 17.5 25.36M794.22 205.35c13.55 7.45 18.17 2.06 15.64-6.79-4.27-14.91-27.39-36.48-38.78-33.05-2.89 1.66-3.51 4.06-2.36 9.19a515 515 0 0 1 25.5 30.65M869.07 218.23c3.89 5.49 13.12 18.38 14.93 19.55.02-.42.04-1.06-4.95-8.83l-3.42-5.23-17.46-24.58c-4.09-5.34-6.19-7.84-7.02-8.35-.03.02-.06.05-.09.07.74 2.96 17.84 27.13 18.01 27.37M843.65 233.94c10.62 14.89 22.22 22.39 23.87 15.44 2.55-10.72-22.56-48.82-33.81-45.16-5.06 3.79 2.77 19.67 9.94 29.72M894.85 280.82c7.56 14.38 14.56 23.26 15.92 20.21 2.87-6.41-20.51-52.35-26.33-51.74-.14.01-.31.12-.44.17-2.34 3.35 5.41 21.01 10.85 31.36M857.35 311.41c12.06 14.14 20.99 11.18 21.45-.31.72-17.76-17.43-46.99-30.07-43.17-2.74 1.57-6.11 5.08-3.86 17.45 4.37 8.52 8.54 17.2 12.48 26.03M928.43 335.6c4.59 13.35 7.4 21.25 8.35 23.49-.02-.23-.05-.53-.07-.76-5.26-16.5-12.4-38.48-18.65-54.63-.33-.78-.33-.78-.51-.97.56 2.8 8.47 25.87 10.88 32.87M902.83 351.9c6.54 17.58 15.47 26.85 18.39 19.07 4.58-12.23-10.14-57.71-21.13-54.15-5.55 4.18-1.74 23.03 2.74 35.08M937.77 407.96c3.24 15.81 7.12 25.75 8.83 22.61 3.91-7.18-5.82-58.38-11.08-58.28-.13 0-.28.11-.4.15-2.5 3.4.04 22.82 2.65 35.52M895.42 434.83c6.76 18.03 15.88 19.28 20.16 9.13 7.3-17.31-2.52-56.66-16.41-52.51-7.2 4.13-7.7 17.62-7.35 25.29 1.32 6.04 2.52 12.07 3.6 18.09M952.73 467.13c.47 10.99.79 20.7.77 23.6-.32-13.9-.51-32.45-1.51-46.31l-1.07-11.25c.38 4.28 1.21 19.83 1.81 33.96M928.38 482.88c1.39 16.6 6.09 25.9 10.26 20.29 7.91-10.64 4.84-57.76-3.7-56.65-.25.03-.55.18-.78.26-5.72 4.2-6.82 23.64-5.78 36.1M944.17 538.01c-.29 3.55-1.66 21.31.31 22.46 4.37-1.95 9.93-54.69 6.01-57.01l-.31.14c-2.58 3.33-5.05 22.88-6.01 34.41M904.15 557.43c-.34 15.91 4.8 24.37 11.22 18.47 12.16-11.17 15.21-53.72 3.93-54.84-.66-.07-1.55.19-2.19.39-8.51 4.79-12.7 23.92-12.96 35.98M939.76 595c-2.01 8.21-3.38 13.07-3.9 14.89l4.97-19.05 4.56-21.28c-1.36 7.13-3.41 16.41-5.63 25.44M919.05 608.84c-2.3 11.58-2.73 22.32.88 20.45 8.05-4.17 19.96-52.06 13.55-54.51-.35-.13-.87.04-1.22.16-5.51 3.97-11.02 22.9-13.21 33.9M914.95 660.71c-4.52 11.85-6.85 18.75-6.94 20.52.09.02.2.04.28.06 4.36-5.12 20.74-46.46 20.62-52.04-.1-.02-.24-.04-.34-.06-2.82 3.38-11.84 26.85-13.62 31.52M881.11 677.24c-3.28 10.72-3.95 20.43 1.12 18.26 10.99-4.72 27.7-46.53 20.31-50.85-.78-.46-1.71-.17-2.45.07-7.91 4.38-15.84 22.27-18.98 32.52M876.55 723.78c-3.13 6.02-8.25 16.39-7.36 18.25 4.15 1.15 29.66-42.69 27.85-47.87-.19-.55-.63-.39-1.05-.24-4.84 3.38-14.83 21.01-19.44 29.86M854.38 769.29c-4.43 5.89-9.11 11.58-13.41 17.56.32-.22.34-.24 2.01-2.22l1.2-1.43c8.26-10.68 19.44-24.8 27.18-35.86 2.48-3.64 2.89-4.38 3.19-4.91-.02-.03-.03-.07-.05-.1-7.55 8.36-13.38 18-20.12 26.96M829.4 781.7c-1.82 2.7-10.74 16.17-7.53 15.76 7.1-.9 35.69-38.72 32.54-43.05-.32-.43-.95-.23-1.51-.05-7.94 4.32-22.87 26.4-23.5 27.34M805.39 820.93c-13.6 13.97-13.6 13.97-14.19 14.88 5.11-2.01 37.55-34.46 39-39.01-.12 0-.28.01-.39.01-2.64 1.76-7.69 6.94-24.42 24.12M787.68 830.41c3.46-3.43 6.07-6.25 8.72-9.43-2.85 3.2-5.76 6.34-8.72 9.43M765.58 857.68l-.02.02 22.38-17.83c-7.48 6.3-14.58 11.96-22.36 17.81M750.49 865.23c-14.81 11.64-14.81 11.64-15.05 11.92 3.37-.31 38.35-25.93 42.34-32.12-.03-.08-.08-.2-.12-.28l-.39.13c-2.59 1.35-2.59 1.35-26.78 20.35M708.07 894.42l-.43.23c7.6-4.3 17.73-10.05 25.19-14.59 1.23-.77 2.49-1.5 3.66-2.35-.03.01-.06.03-.09.04-9.43 5.57-18.72 11.41-28.33 16.67M692.3 902.19c8.22-4.24 14.25-7.64 20.8-11.71-6.78 4.12-13.72 8.03-20.8 11.71">
      </path>
    </g>
  </svg>
